<svg width="272" height="199" viewBox="0 0 272 199" fill="none" xmlns="http://www.w3.org/2000/svg">
<rect y="0.980225" width="128" height="198.02" rx="8" fill="#29292E"/>
<path d="M101.078 119.699V92.5115C101.078 85.1677 100.219 78.7094 98.5 73.1365C96.7812 67.5115 94.3333 62.7979 91.1562 58.9958C87.9271 55.2458 84.0208 52.4073 79.4375 50.4802C74.8542 48.5531 69.6979 47.5896 63.9688 47.5896C58.2917 47.5896 53.1615 48.5531 48.5781 50.4802C44.0469 52.4073 40.1927 55.2458 37.0156 58.9958C33.7865 62.7979 31.3125 67.5115 29.5938 73.1365C27.875 78.7094 27.0156 85.1677 27.0156 92.5115V119.699C27.0156 127.043 27.875 133.527 29.5938 139.152C31.3646 144.725 33.8646 149.386 37.0938 153.136C40.2708 156.939 44.151 159.803 48.7344 161.73C53.3177 163.657 58.4479 164.621 64.125 164.621C69.8542 164.621 75.0104 163.657 79.5938 161.73C84.1771 159.803 88.0573 156.939 91.2344 153.136C94.4115 149.386 96.8333 144.725 98.5 139.152C100.219 133.527 101.078 127.043 101.078 119.699ZM48.8906 110.324C48.8906 108.709 48.8906 107.485 48.8906 106.652C48.8906 105.819 48.8906 104.152 48.8906 101.652V89.074C48.8906 84.8552 49.2031 81.2094 49.8281 78.1365C50.5052 75.0636 51.5208 72.5636 52.875 70.6365C54.125 68.8136 55.6615 67.4594 57.4844 66.574C59.3594 65.6365 61.5208 65.1677 63.9688 65.1677C66.1562 65.1677 68.1094 65.5323 69.8281 66.2615C71.599 66.9386 73.0833 68.0063 74.2812 69.4646C75.8438 71.2875 77.0156 73.7354 77.7969 76.8083C78.6302 79.8292 79.099 83.475 79.2031 87.7458L48.8906 110.324ZM79.2031 122.98C79.2031 127.199 78.8646 130.871 78.1875 133.996C77.5625 137.069 76.599 139.595 75.2969 141.574C74.0469 143.449 72.4844 144.855 70.6094 145.793C68.7344 146.678 66.5729 147.121 64.125 147.121C61.4688 147.121 59.1771 146.6 57.25 145.558C55.3229 144.517 53.7344 142.928 52.4844 140.793C51.3906 139.022 50.5312 136.808 49.9062 134.152C49.3333 131.496 48.9948 128.449 48.8906 125.011L79.2031 102.511C79.2031 104.022 79.2031 105.194 79.2031 106.027C79.2031 106.808 79.2031 108.058 79.2031 109.777V122.98Z" fill="#E1E1E6"/>
<rect x="144" y="0.980225" width="128" height="198.02" rx="8" fill="#29292E"/>
<path d="M248.393 119.951V92.7631C248.393 85.4193 247.533 78.961 245.814 73.3881C244.096 67.7631 241.648 63.0495 238.471 59.2474C235.242 55.4974 231.335 52.6589 226.752 50.7318C222.169 48.8047 217.012 47.8412 211.283 47.8412C205.606 47.8412 200.476 48.8047 195.893 50.7318C191.361 52.6589 187.507 55.4974 184.33 59.2474C181.101 63.0495 178.627 67.7631 176.908 73.3881C175.189 78.961 174.33 85.4193 174.33 92.7631V119.951C174.33 127.294 175.189 133.779 176.908 139.404C178.679 144.977 181.179 149.638 184.408 153.388C187.585 157.19 191.465 160.055 196.049 161.982C200.632 163.909 205.762 164.872 211.439 164.872C217.169 164.872 222.325 163.909 226.908 161.982C231.492 160.055 235.372 157.19 238.549 153.388C241.726 149.638 244.148 144.977 245.814 139.404C247.533 133.779 248.393 127.294 248.393 119.951ZM196.205 110.576C196.205 108.961 196.205 107.737 196.205 106.904C196.205 106.07 196.205 104.404 196.205 101.904V89.3256C196.205 85.1068 196.518 81.461 197.143 78.3881C197.82 75.3151 198.835 72.8151 200.189 70.8881C201.439 69.0651 202.976 67.711 204.799 66.8256C206.674 65.8881 208.835 65.4193 211.283 65.4193C213.471 65.4193 215.424 65.7839 217.143 66.5131C218.913 67.1901 220.398 68.2579 221.596 69.7162C223.158 71.5391 224.33 73.987 225.111 77.0599C225.945 80.0808 226.413 83.7266 226.518 87.9974L196.205 110.576ZM226.518 123.232C226.518 127.451 226.179 131.122 225.502 134.247C224.877 137.32 223.913 139.846 222.611 141.826C221.361 143.701 219.799 145.107 217.924 146.044C216.049 146.93 213.887 147.372 211.439 147.372C208.783 147.372 206.492 146.852 204.564 145.81C202.637 144.768 201.049 143.18 199.799 141.044C198.705 139.273 197.846 137.06 197.221 134.404C196.648 131.747 196.309 128.701 196.205 125.263L226.518 102.763C226.518 104.273 226.518 105.445 226.518 106.279C226.518 107.06 226.518 108.31 226.518 110.029V123.232Z" fill="#E1E1E6"/>
</svg>
